<?xml version="1.0" encoding="UTF-8" standalone="no"?>
<svg
   xmlns:dc="http://purl.org/dc/elements/1.1/"
   xmlns:cc="http://creativecommons.org/ns#"
   xmlns:rdf="http://www.w3.org/1999/02/22-rdf-syntax-ns#"
   xmlns:svg="http://www.w3.org/2000/svg"
   xmlns="http://www.w3.org/2000/svg"
   xmlns:sodipodi="http://sodipodi.sourceforge.net/DTD/sodipodi-0.dtd"
   xmlns:inkscape="http://www.inkscape.org/namespaces/inkscape"
   width="41.14994mm"
   height="41.070362mm"
   viewBox="0 0 41.14994 41.070361"
   version="1.1"
   id="svg1099"
   inkscape:version="1.0.1 (3bc2e813f5, 2020-09-07)"
   sodipodi:docname="logo.svg">
  <defs
     id="defs1093" />
  <sodipodi:namedview
     id="base"
     pagecolor="#ffffff"
     bordercolor="#666666"
     borderopacity="1.0"
     inkscape:pageopacity="0.0"
     inkscape:pageshadow="2"
     inkscape:zoom="1.979899"
     inkscape:cx="137.71362"
     inkscape:cy="96.511713"
     inkscape:document-units="cm"
     inkscape:current-layer="layer1"
     inkscape:document-rotation="0"
     showgrid="false"
     units="mm"
     fit-margin-top="0"
     fit-margin-left="0"
     fit-margin-right="0"
     fit-margin-bottom="0"
     inkscape:window-width="1920"
     inkscape:window-height="1017"
     inkscape:window-x="-8"
     inkscape:window-y="-8"
     inkscape:window-maximized="1" />
  <metadata
     id="metadata1096">
    <rdf:RDF>
      <cc:Work
         rdf:about="">
        <dc:format>image/svg+xml</dc:format>
        <dc:type
           rdf:resource="http://purl.org/dc/dcmitype/StillImage" />
        <dc:title></dc:title>
      </cc:Work>
    </rdf:RDF>
  </metadata>
  <g
     inkscape:label="Layer 1"
     inkscape:groupmode="layer"
     id="layer1"
     transform="translate(-83.58377,-157.66386)">
    <g
       id="g1808"
       transform="translate(112.54996,11.556499)"
       inkscape:export-filename="C:\Users\wissm\OneDrive - microcok10\TA\x\g46.png"
       inkscape:export-xdpi="96"
       inkscape:export-ydpi="96">
      <g
         id="g1792">
        <path
           style="opacity:0.383871;fill:#bc7348;fill-opacity:1;stroke:#bc7348;stroke-width:0;stroke-opacity:1"
           d="m -8.43101,146.64273 c -5.376285,0 -10.719987,2.15801 -14.521594,5.86684 -3.801608,3.70883 -6.013585,8.92212 -6.013585,14.16721 0,5.24508 2.211977,10.45838 6.013585,14.16721 3.801607,3.70884 9.145309,5.86684 14.521594,5.86684 5.3762839,0 10.719986,-2.158 14.521594,-5.86684 3.801607,-3.70883 6.013587,-8.92213 6.013587,-14.16721 0,-5.24509 -2.21198,-10.45838 -6.013587,-14.16721 -3.801608,-3.70883 -9.1453101,-5.86684 -14.521594,-5.86684 z"
           id="path1727-1-8" />
        <path
           id="path1727-1"
           style="opacity:1;fill:#bc7348;fill-opacity:0.894118;stroke:#bc7348;stroke-width:0;stroke-opacity:1"
           d="m -31.564453,552.2168 c -20.319815,0 -40.516487,8.36026 -54.884766,22.72851 -14.368281,14.36829 -22.728511,34.56493 -22.728511,54.88477 0,20.3198 8.36023,40.51651 22.728511,54.88476 14.368279,14.36829 34.564951,22.72852 54.884766,22.72852 20.319815,0 40.5164865,-8.36023 54.884765,-22.72852 14.368279,-14.36825 22.728516,-34.56496 22.728516,-54.88476 0,-20.31984 -8.360237,-40.51648 -22.728516,-54.88477 C 8.9520335,560.57706 -11.244638,552.2168 -31.564453,552.2168 Z m -0.300781,2.02343 a 75.59055,75.59055 0 0 1 0.300781,0 75.59055,75.59055 0 0 1 75.589844,75.58985 75.59055,75.59055 0 0 1 -75.589844,75.58984 75.59055,75.59055 0 0 1 -75.591797,-75.58984 75.59055,75.59055 0 0 1 75.291016,-75.58985 z"
           transform="scale(0.26458334)" />
      </g>
      <g
         id="g1766"
         transform="translate(-1.4812202,1.4396248)">
        <text
           xml:space="preserve"
           style="font-size:3.44367px;line-height:1.25;font-family:Quicksand;-inkscape-font-specification:Quicksand;letter-spacing:0px;fill:#371110;fill-opacity:1;stroke-width:0.239135"
           x="-7.2296481"
           y="166.94501"
           id="text844"
           transform="scale(1.0001241,0.99987591)"><tspan
             sodipodi:role="line"
             id="tspan842"
             x="-7.2296481"
             y="166.94501"
             style="font-style:normal;font-variant:normal;font-weight:normal;font-stretch:normal;font-size:3.44367px;font-family:'Trajan Pro';-inkscape-font-specification:'Trajan Pro';fill:#371110;fill-opacity:1;stroke-width:0.239135">Paperon</tspan></text>
        <text
           xml:space="preserve"
           style="font-size:3.67853px;line-height:1.25;font-family:Quicksand;-inkscape-font-specification:Quicksand;letter-spacing:0px;fill:#371110;fill-opacity:1;stroke-width:0.283827"
           x="-8.8383245"
           y="170.48384"
           id="text844-3"
           transform="scale(1.0001241,0.99987591)"><tspan
             sodipodi:role="line"
             id="tspan842-9"
             x="-8.8383245"
             y="170.48384"
             style="font-style:normal;font-variant:normal;font-weight:normal;font-stretch:normal;font-size:3.67853px;font-family:'Trajan Pro';-inkscape-font-specification:'Trajan Pro';fill:#371110;fill-opacity:1;stroke-width:0.283827">Dev</tspan></text>
        <g
           id="g1089"
           transform="translate(16.409272,-41.215798)">
          <g
             id="g1737"
             transform="translate(0.52916667,-0.52916667)">
            <path
               style="opacity:0.487097;fill:#371110;fill-opacity:1;stroke:#371110;stroke-width:0.0618897;stroke-opacity:1"
               d="m -37.022416,219.84174 c -0.03427,-0.12883 -0.472322,-1.71794 -0.973452,-3.53135 l -0.911135,-3.29714 0.323913,-1.73075 c 0.428581,-2.28998 2.07105,-11.12133 2.267572,-12.19246 0.08508,-0.46375 0.165722,-0.87728 0.179192,-0.91895 0.01544,-0.0478 0.235188,0.0592 0.596347,0.29028 0.866339,0.55453 1.398718,0.83881 1.455816,0.77733 0.0426,-0.0459 1.219029,-2.84946 1.721824,-4.10337 0.390135,-0.97294 1.095258,-1.32894 2.603434,-1.31441 0.962059,0.009 1.935069,0.17462 3.080017,0.52343 3.035029,0.92461 5.278219,2.4683 5.951957,4.09599 0.375624,0.90744 0.235847,1.97007 -0.364801,2.77329 -0.141289,0.18891 -2.090284,3.37896 -4.331101,7.08897 -2.24082,3.71002 -4.119336,6.79836 -4.17448,6.86298 -0.0961,0.11263 -2.223386,1.56194 -4.402894,2.99968 -0.928531,0.61251 -1.017343,0.68604 -0.879507,0.72818 0.08432,0.0259 1.697749,0.25321 3.585392,0.5054 3.733797,0.49881 3.769943,0.51086 1.62741,0.54151 -0.590275,0.008 -2.108117,0.0418 -3.37299,0.0738 -1.264872,0.0322 -2.664364,0.0593 -3.109984,0.0601 l -0.810219,0.001 z m 1.28541,-1.67769 c 0.340338,-0.22711 0.606356,-0.4256 0.591149,-0.44108 -0.03349,-0.0341 -1.598931,-0.63267 -1.617245,-0.61837 -0.01862,0.0146 0.366035,1.47236 0.388502,1.47236 0.01034,0 0.297256,-0.1858 0.637594,-0.41291 z m 2.540408,-1.67617 c 0.868411,-0.57112 0.890753,-0.59115 0.695611,-0.62357 -0.110889,-0.0184 -0.449992,-0.075 -0.75356,-0.12587 -1.077885,-0.18042 -2.855452,-0.88415 -3.960977,-1.56811 -0.203375,-0.12582 -0.37836,-0.2187 -0.388855,-0.20638 -0.02664,0.0312 0.49916,1.93008 0.548326,1.98015 0.02774,0.0283 2.807273,1.09329 2.952578,1.13134 0.0053,0.001 0.413405,-0.26301 0.906877,-0.58756 z m 2.088498,-1.72348 c 0.236111,-0.0344 0.470686,-0.0762 0.521281,-0.0927 0.0969,-0.0319 1.318619,-2.01768 1.271069,-2.06611 -0.01518,-0.0155 -0.295308,-0.0691 -0.622494,-0.11906 -0.897258,-0.13719 -1.924723,-0.38536 -2.88385,-0.69659 -0.862484,-0.27985 -2.267828,-0.79596 -2.408495,-0.8845 -0.0582,-0.0366 -0.05329,-0.1661 0.02217,-0.58464 l 0.09692,-0.53759 0.437863,0.18584 c 0.713632,0.3029 2.531208,0.91717 3.289569,1.11176 0.9115,0.23388 1.687262,0.36515 2.295931,0.38853 l 0.48678,0.0187 0.293985,-0.48145 0.293987,-0.48145 -0.198161,-0.0277 c -0.993673,-0.13851 -1.650537,-0.27302 -2.335378,-0.47821 -1.15256,-0.3453 -1.299788,-0.40458 -1.280483,-0.51561 0.01629,-0.0936 2.092052,-5.11431 2.132683,-5.15828 0.01137,-0.0124 1.059529,0.15133 2.329217,0.36371 1.269684,0.21237 2.375987,0.39107 2.458446,0.39713 0.132108,0.009 0.240167,-0.13742 0.909135,-1.23811 0.417565,-0.68704 0.754592,-1.25408 0.748943,-1.26009 -0.0055,-0.006 -0.175616,0.0317 -0.37772,0.0838 -0.511539,0.13195 -2.424579,0.1817 -3.299232,0.0857 -2.55384,-0.28002 -5.521992,-1.28444 -8.049376,-2.72389 l -0.385263,-0.21943 -0.06562,0.33049 c -0.230106,1.15914 -2.274576,12.22726 -2.274576,12.31384 0,0.22274 1.691158,1.18954 2.955078,1.68932 1.386982,0.54846 2.601164,0.74753 3.637582,0.5964 z m -2.729056,-5.8761 c -0.522811,-0.20603 -0.972273,-0.39642 -0.9988,-0.42307 -0.05079,-0.0511 0.06772,-0.94149 0.135824,-1.02062 0.03535,-0.0412 2.159946,0.75276 2.244142,0.83851 0.04485,0.0457 -0.306751,0.9467 -0.376707,0.9654 -0.02964,0.008 -0.481642,-0.15419 -1.004459,-0.36022 z m 0.534451,-2.11124 c -0.633624,-0.19965 -1.166716,-0.37795 -1.184649,-0.39622 -0.05791,-0.059 0.117221,-1.04499 0.185592,-1.04499 0.03636,0 0.645595,0.16864 1.353853,0.37474 0.708255,0.20611 1.294663,0.37475 1.303133,0.37475 0.04826,0 -0.0059,0.18572 -0.174308,0.5977 -0.104336,0.25525 -0.221625,0.46251 -0.260639,0.46058 -0.03903,-0.002 -0.589357,-0.16689 -1.222982,-0.36656 z m 0.523444,-2.14928 c -1.00156,-0.32773 -1.364527,-0.47221 -1.364527,-0.54314 0,-0.15625 0.185472,-0.8362 0.244532,-0.89644 0.04111,-0.042 2.971983,0.84548 3.050657,0.92368 0.0079,0.007 -0.06446,0.22311 -0.160585,0.47852 -0.127036,0.33754 -0.206292,0.46706 -0.290164,0.47413 -0.06346,0.005 -0.729425,-0.19119 -1.479913,-0.43675 z m 6.400938,3.18857 c 0.813399,-1.34684 0.971157,-1.64523 0.889243,-1.6819 -0.179172,-0.0802 -3.530965,-0.60815 -3.569704,-0.56225 -0.02076,0.0247 -0.08106,0.15714 -0.133993,0.29453 -0.05293,0.13741 -0.358589,0.8767 -0.67922,1.64286 l -0.582969,1.39303 0.16405,0.0649 c 0.490577,0.19394 1.990368,0.45973 2.709123,0.48011 l 0.214644,0.006 z m 2.690798,-6.22085 c 1.01078,-0.27356 1.672276,-0.74934 1.973513,-1.41947 0.325612,-0.72434 0.09681,-1.49983 -0.677308,-2.29578 -1.146171,-1.17846 -3.419757,-2.29743 -5.676016,-2.79352 -0.734768,-0.16156 -2.153402,-0.22878 -2.613788,-0.12385 -0.380926,0.0868 -0.621653,0.30147 -0.677377,0.60397 -0.142967,0.77613 1.754278,2.1105 3.991352,2.80719 0.303569,0.0945 0.576031,0.19377 0.60547,0.22051 0.02945,0.0268 -0.212037,0.68523 -0.536614,1.46326 -0.324571,0.77804 -0.590135,1.43754 -0.590135,1.46555 0,0.028 0.282871,0.0843 0.628601,0.12533 0.345732,0.041 0.683798,0.0839 0.751257,0.0959 0.06746,0.0119 0.619403,0.013 1.226544,0.002 0.888217,-0.0152 1.199739,-0.0449 1.594501,-0.15169 z m -4.843784,-1.34007 c 0.223754,-0.54418 0.397846,-0.99547 0.386868,-1.00288 -0.01099,-0.007 -0.226938,-0.0934 -0.479914,-0.19123 -1.150465,-0.44459 -2.430862,-1.20785 -2.990423,-1.78269 -0.177484,-0.18232 -0.331959,-0.32011 -0.343279,-0.30621 -0.06605,0.081 -1.144221,2.77024 -1.129152,2.81626 0.07139,0.21811 3.964272,1.63805 4.106651,1.4979 0.02334,-0.023 0.225495,-0.48697 0.449249,-1.03115 z"
               id="path1874-5" />
            <g
               id="g1040"
               transform="matrix(1.0067848,0,0,1.0065349,-5.4645836,-1.2401108)">
              <path
                 style="fill:#371110;fill-opacity:1;stroke:#371110;stroke-width:0.0600732;stroke-opacity:1"
                 d="m -31.742568,219.3818 c -0.03357,-0.1239 -0.462667,-1.65234 -0.953552,-3.39653 l -0.892512,-3.17126 0.317292,-1.66466 c 0.419821,-2.20256 2.028717,-10.69674 2.221222,-11.72697 0.08335,-0.44605 0.162335,-0.84379 0.175529,-0.88387 0.01514,-0.046 0.23038,0.0568 0.584158,0.2792 0.84863,0.53337 1.370127,0.80678 1.426057,0.74765 0.04174,-0.0441 1.194111,-2.74066 1.68663,-3.9467 0.38216,-0.9358 1.072869,-1.27821 2.550218,-1.26423 0.942393,0.009 1.895513,0.16795 3.01706,0.50344 2.97299,0.88931 5.170327,2.37407 5.830294,3.9396 0.367947,0.87281 0.231027,1.89486 -0.357344,2.66741 -0.1384,0.18172 -2.047557,3.24997 -4.242571,6.81834 -2.195016,3.56837 -4.035134,6.5388 -4.089151,6.60096 -0.09414,0.10832 -2.177937,1.5023 -4.312896,2.88515 -0.909551,0.58913 -0.996547,0.65985 -0.861528,0.70038 0.0826,0.0248 1.663046,0.24354 3.512103,0.4861 3.657475,0.47978 3.692883,0.49135 1.594145,0.52084 -0.57821,0.008 -2.065027,0.0401 -3.304043,0.071 -1.239018,0.0309 -2.609903,0.057 -3.046415,0.0578 l -0.793658,0.001 z m 1.259136,-1.61364 c 0.333381,-0.21844 0.593962,-0.40934 0.579066,-0.42424 -0.03281,-0.0328 -1.566249,-0.60851 -1.584188,-0.59476 -0.01825,0.014 0.358554,1.41615 0.380563,1.41615 0.01013,0 0.291179,-0.17871 0.624559,-0.39715 z m 2.488481,-1.61217 c 0.850659,-0.54932 0.872544,-0.56858 0.681392,-0.59976 -0.108622,-0.0177 -0.440793,-0.0722 -0.738157,-0.12107 -1.055853,-0.17354 -2.797084,-0.85039 -3.880012,-1.50823 -0.199218,-0.12102 -0.370626,-0.21036 -0.380906,-0.19852 -0.0261,0.03 0.488956,1.8564 0.537117,1.90456 0.02717,0.0272 2.749891,1.05154 2.892226,1.08815 0.0052,10e-4 0.404954,-0.25297 0.88834,-0.56513 z m 2.045808,-1.65768 c 0.231285,-0.0331 0.461064,-0.0733 0.510625,-0.0892 0.09492,-0.0306 1.291665,-1.94065 1.245088,-1.98723 -0.01487,-0.0149 -0.289273,-0.0664 -0.609769,-0.11452 -0.878918,-0.13194 -1.885381,-0.37064 -2.824904,-0.66998 -0.844853,-0.26917 -2.22147,-0.76557 -2.359262,-0.85073 -0.05702,-0.0352 -0.05221,-0.15976 0.02171,-0.56233 l 0.09494,-0.51706 0.428911,0.17875 c 0.699046,0.29133 2.479468,0.88215 3.222328,1.0693 0.89287,0.22495 1.652773,0.35122 2.249001,0.37371 l 0.47683,0.018 0.287976,-0.46306 0.287978,-0.46306 -0.194111,-0.0266 c -0.973361,-0.13323 -1.616798,-0.2626 -2.28764,-0.45995 -1.129002,-0.33213 -1.27322,-0.38915 -1.25431,-0.49594 0.01596,-0.0901 2.049289,-4.91905 2.08909,-4.96135 0.01114,-0.0119 1.037872,0.14557 2.281606,0.34983 1.243732,0.20426 2.327421,0.37615 2.408193,0.38198 0.129408,0.009 0.235258,-0.13219 0.890552,-1.19085 0.40903,-0.66081 0.739167,-1.2062 0.733635,-1.21198 -0.0055,-0.006 -0.172028,0.0305 -0.369999,0.0807 -0.501083,0.12692 -2.375019,0.17477 -3.231795,0.0825 -2.501638,-0.26933 -5.40912,-1.2354 -7.88484,-2.6199 l -0.37739,-0.21105 -0.06427,0.31788 c -0.225401,1.11489 -2.228081,11.76043 -2.228081,11.8437 0,0.21425 1.656589,1.14413 2.894673,1.62484 1.358631,0.52751 2.547994,0.71898 3.563229,0.57363 z m -2.673271,-5.65176 c -0.512126,-0.19816 -0.9524,-0.38128 -0.978386,-0.40693 -0.04974,-0.0491 0.06634,-0.90553 0.133047,-0.98164 0.03463,-0.0395 2.115795,0.72402 2.198271,0.8065 0.04393,0.0439 -0.30048,0.91056 -0.369006,0.92853 -0.02903,0.008 -0.471798,-0.1483 -0.983926,-0.34646 z m 0.523524,-2.03062 c -0.620671,-0.19204 -1.142867,-0.36354 -1.160433,-0.3811 -0.05672,-0.0567 0.114825,-1.0051 0.181798,-1.0051 0.03561,0 0.632399,0.1622 1.326178,0.36044 0.693778,0.19824 1.268202,0.36044 1.276498,0.36044 0.04727,0 -0.0058,0.17864 -0.170745,0.57488 -0.102204,0.2455 -0.217095,0.44485 -0.255312,0.44299 -0.03822,-0.002 -0.577311,-0.16051 -1.197984,-0.35255 z m 0.512744,-2.06725 c -0.981085,-0.31521 -1.336633,-0.45417 -1.336633,-0.52239 0,-0.15029 0.18168,-0.80428 0.239532,-0.86223 0.04027,-0.0403 2.911236,0.81321 2.9883,0.88844 0.0077,0.007 -0.06314,0.21457 -0.157302,0.46024 -0.124439,0.32465 -0.202076,0.44922 -0.284232,0.45602 -0.06217,0.005 -0.714515,-0.18389 -1.449665,-0.42008 z m 6.2701,3.06684 c 0.796773,-1.29541 0.951307,-1.58241 0.871066,-1.61768 -0.175509,-0.0772 -3.45879,-0.58492 -3.496737,-0.54078 -0.02034,0.0237 -0.0794,0.15113 -0.131254,0.28329 -0.05186,0.13216 -0.351259,0.84322 -0.665337,1.58013 l -0.571053,1.33984 0.160698,0.0624 c 0.480549,0.18653 1.949682,0.44217 2.653747,0.46178 l 0.210257,0.006 z m 2.635796,-5.98334 c 0.99012,-0.26311 1.638094,-0.72073 1.933175,-1.36527 0.318956,-0.6967 0.09484,-1.44258 -0.663464,-2.20813 -1.122744,-1.13347 -3.349856,-2.20972 -5.559996,-2.68688 -0.719749,-0.15539 -2.109385,-0.22004 -2.560359,-0.11912 -0.37314,0.0835 -0.608947,0.28996 -0.663532,0.58092 -0.140044,0.7465 1.718419,2.02992 3.909767,2.70001 0.297364,0.0909 0.564256,0.18638 0.593093,0.2121 0.02884,0.0257 -0.207702,0.65906 -0.525644,1.40739 -0.317939,0.74834 -0.578074,1.38266 -0.578074,1.4096 0,0.0269 0.27709,0.0812 0.615753,0.12054 0.338665,0.0393 0.669821,0.0808 0.735901,0.0922 0.06608,0.0114 0.606742,0.0125 1.201471,0.002 0.870062,-0.0146 1.175215,-0.0431 1.561909,-0.14588 z m -4.744775,-1.2889 c 0.219182,-0.5234 0.389714,-0.95748 0.378961,-0.96461 -0.01076,-0.007 -0.222299,-0.0899 -0.470103,-0.18392 -1.12695,-0.4276 -2.381174,-1.16174 -2.929297,-1.71462 -0.173856,-0.17536 -0.325173,-0.3079 -0.336262,-0.29453 -0.0647,0.078 -1.120833,2.66447 -1.106072,2.70875 0.06993,0.20977 3.883239,1.5755 4.022708,1.44072 0.02286,-0.0221 0.220885,-0.46839 0.440065,-0.99179 z"
                 id="path1874" />
              <path
                 id="path1876"
                 style="fill:#f7d118;fill-opacity:1;stroke:#78cdef;stroke-width:0;stroke-opacity:0.894118"
                 d="m -31.356233,216.68729 c -0.03409,0.001 -0.0946,-0.0142 -0.200172,0.0799 -0.129685,0.11561 -0.09998,0.17257 -0.10322,0.20288 -0.0032,0.0303 -0.0022,0.0456 -0.0015,0.0596 0.0014,0.028 0.0042,0.0472 0.0075,0.0689 0.0066,0.0434 0.01619,0.0923 0.02871,0.15074 0.02504,0.11688 0.06172,0.26861 0.105201,0.43321 0.04329,0.16385 0.08534,0.31247 0.119522,0.4241 0.01709,0.0558 0.03187,0.10162 0.046,0.14051 0.0071,0.0194 0.01311,0.0361 0.02422,0.0598 0.0056,0.0119 0.01082,0.0245 0.02851,0.0507 0.0088,0.0131 0.01963,0.03 0.04877,0.0568 0.02915,0.0268 0.08501,0.0822 0.210335,0.0822 0.135958,0 0.12801,-0.0251 0.151069,-0.0358 0.02306,-0.0107 0.04128,-0.0206 0.06111,-0.0319 0.03968,-0.0225 0.08358,-0.0497 0.133646,-0.0818 0.100127,-0.0642 0.222664,-0.1471 0.343717,-0.23165 0.121052,-0.0846 0.23962,-0.17007 0.331969,-0.24037 0.04617,-0.0351 0.08526,-0.0658 0.119126,-0.095 0.01693,-0.0146 0.03204,-0.0278 0.05161,-0.0484 0.0098,-0.0103 0.02062,-0.0216 0.03703,-0.0451 0.0164,-0.0235 0.05814,-0.0457 0.05814,-0.18242 0,-0.15352 -0.06354,-0.19272 -0.08883,-0.21924 -0.02529,-0.0265 -0.04117,-0.0373 -0.05524,-0.0473 -0.02814,-0.02 -0.04879,-0.0312 -0.07194,-0.0437 -0.0463,-0.0249 -0.09908,-0.0498 -0.161496,-0.0779 -0.12483,-0.0561 -0.284654,-0.12224 -0.446476,-0.18591 -0.161822,-0.0637 -0.32423,-0.12435 -0.454394,-0.16857 -0.06508,-0.0221 -0.121056,-0.04 -0.172057,-0.0534 -0.0255,-0.007 -0.04841,-0.0126 -0.0817,-0.0172 -0.01665,-0.002 -0.03514,-0.005 -0.06923,-0.004 z" />
            </g>
          </g>
        </g>
      </g>
    </g>
  </g>
</svg>
